<mxfile>
    <diagram id="hWGu5HXMCDJEKDJ21eBq" name="Page-1">
        <mxGraphModel dx="3411" dy="2029" grid="1" gridSize="10" guides="1" tooltips="1" connect="1" arrows="1" fold="1" page="1" pageScale="1" pageWidth="827" pageHeight="1169" math="0" shadow="0">
            <root>
                <mxCell id="0"/>
                <mxCell id="1" parent="0"/>
                <mxCell id="112" value="" style="rounded=0;whiteSpace=wrap;html=1;strokeColor=#FFFFFF;fillColor=#FF0000;rotation=90;" vertex="1" parent="1">
                    <mxGeometry x="-816.09" y="-199.83" width="1542.19" height="1750" as="geometry"/>
                </mxCell>
                <mxCell id="39" value="" style="rounded=0;whiteSpace=wrap;html=1;rotation=90;" vertex="1" parent="1">
                    <mxGeometry x="-783.75" y="193.75" width="1490" height="960" as="geometry"/>
                </mxCell>
                <mxCell id="40" value="&lt;b&gt;&lt;font style=&quot;font-size: 30px&quot;&gt;Usuario/Cliente&lt;/font&gt;&lt;/b&gt;" style="shape=umlActor;verticalLabelPosition=bottom;verticalAlign=top;html=1;outlineConnect=0;strokeColor=#33001A;fillColor=#33001A;fontSize=30;" vertex="1" parent="1">
                    <mxGeometry x="-810" y="360" width="90" height="230" as="geometry"/>
                </mxCell>
                <mxCell id="41" value="&lt;b&gt;Registro&lt;/b&gt;" style="ellipse;whiteSpace=wrap;html=1;" vertex="1" parent="1">
                    <mxGeometry x="-70" y="40" width="90" height="60" as="geometry"/>
                </mxCell>
                <mxCell id="42" value="&lt;b&gt;Inicia sesion&lt;/b&gt;" style="ellipse;whiteSpace=wrap;html=1;" vertex="1" parent="1">
                    <mxGeometry x="-70" y="110" width="90" height="70" as="geometry"/>
                </mxCell>
                <mxCell id="43" value="&lt;b&gt;Catalogo de cursos&lt;/b&gt;" style="ellipse;whiteSpace=wrap;html=1;" vertex="1" parent="1">
                    <mxGeometry x="-413" y="590" width="100" height="80" as="geometry"/>
                </mxCell>
                <mxCell id="44" value="&lt;b&gt;Perfil de usuario&lt;/b&gt;" style="ellipse;whiteSpace=wrap;html=1;" vertex="1" parent="1">
                    <mxGeometry x="-330" y="310" width="100" height="80" as="geometry"/>
                </mxCell>
                <mxCell id="45" value="&lt;b&gt;Comprar curso&lt;span style=&quot;color: rgba(0 , 0 , 0 , 0) ; font-family: monospace ; font-size: 0px&quot;&gt;%3CmxGraphModel%3E%3Croot%3E%3CmxCell%20id%3D%220%22%2F%3E%3CmxCell%20id%3D%221%22%20parent%3D%220%22%2F%3E%3CmxCell%20id%3D%222%22%20value%3D%22Catalogo%20de%20cursos%22%20style%3D%22ellipse%3BwhiteSpace%3Dwrap%3Bhtml%3D1%3B%22%20vertex%3D%221%22%20parent%3D%221%22%3E%3CmxGeometry%20x%3D%22170%22%20y%3D%22290%22%20width%3D%22120%22%20height%3D%2280%22%20as%3D%22geometry%22%2F%3E%3C%2FmxCell%3E%3C%2Froot%3E%3C%2FmxGraphModel%3E&lt;/span&gt;&lt;/b&gt;" style="ellipse;whiteSpace=wrap;html=1;" vertex="1" parent="1">
                    <mxGeometry x="-125" y="1120" width="90" height="70" as="geometry"/>
                </mxCell>
                <mxCell id="46" value="&lt;b&gt;Los mejores cursos&lt;/b&gt;" style="ellipse;whiteSpace=wrap;html=1;" vertex="1" parent="1">
                    <mxGeometry x="-40" y="720" width="90" height="60" as="geometry"/>
                </mxCell>
                <mxCell id="47" value="&lt;b&gt;Cursos destacados&lt;/b&gt;" style="ellipse;whiteSpace=wrap;html=1;" vertex="1" parent="1">
                    <mxGeometry x="81.5" y="620" width="90" height="59.5" as="geometry"/>
                </mxCell>
                <mxCell id="48" value="&lt;b&gt;Cursos recomendados&lt;/b&gt;" style="ellipse;whiteSpace=wrap;html=1;" vertex="1" parent="1">
                    <mxGeometry x="97" y="555" width="98" height="60" as="geometry"/>
                </mxCell>
                <mxCell id="49" value="&lt;b&gt;Autorizar pago&lt;/b&gt;" style="ellipse;whiteSpace=wrap;html=1;" vertex="1" parent="1">
                    <mxGeometry x="220" y="1110" width="100" height="70" as="geometry"/>
                </mxCell>
                <mxCell id="50" value="" style="endArrow=none;html=1;exitX=0.5;exitY=0;exitDx=0;exitDy=0;exitPerimeter=0;" edge="1" parent="1" source="40" target="41">
                    <mxGeometry width="50" height="50" relative="1" as="geometry">
                        <mxPoint x="440" y="370" as="sourcePoint"/>
                        <mxPoint x="490" y="320" as="targetPoint"/>
                    </mxGeometry>
                </mxCell>
                <mxCell id="51" value="" style="endArrow=none;html=1;exitX=0.5;exitY=0;exitDx=0;exitDy=0;exitPerimeter=0;entryX=0;entryY=1;entryDx=0;entryDy=0;" edge="1" parent="1" source="40" target="42">
                    <mxGeometry width="50" height="50" relative="1" as="geometry">
                        <mxPoint x="95" y="280" as="sourcePoint"/>
                        <mxPoint x="166.72723752465663" y="98.74431137799172" as="targetPoint"/>
                    </mxGeometry>
                </mxCell>
                <mxCell id="52" value="" style="endArrow=none;html=1;entryX=0;entryY=0.5;entryDx=0;entryDy=0;exitX=0.5;exitY=0.5;exitDx=0;exitDy=0;exitPerimeter=0;" edge="1" parent="1" source="40" target="45">
                    <mxGeometry width="50" height="50" relative="1" as="geometry">
                        <mxPoint x="90" y="340" as="sourcePoint"/>
                        <mxPoint x="176.72723752465663" y="108.74431137799172" as="targetPoint"/>
                        <Array as="points"/>
                    </mxGeometry>
                </mxCell>
                <mxCell id="53" value="" style="endArrow=none;html=1;entryX=-0.033;entryY=0.375;entryDx=0;entryDy=0;entryPerimeter=0;exitX=0.5;exitY=0.5;exitDx=0;exitDy=0;exitPerimeter=0;" edge="1" parent="1" source="40" target="43">
                    <mxGeometry width="50" height="50" relative="1" as="geometry">
                        <mxPoint x="85" y="300" as="sourcePoint"/>
                        <mxPoint x="186.72723752465663" y="118.74431137799172" as="targetPoint"/>
                        <Array as="points"/>
                    </mxGeometry>
                </mxCell>
                <mxCell id="54" value="" style="endArrow=none;html=1;entryX=0.073;entryY=0.25;entryDx=0;entryDy=0;entryPerimeter=0;exitX=0.5;exitY=0.5;exitDx=0;exitDy=0;exitPerimeter=0;" edge="1" parent="1" source="40" target="44">
                    <mxGeometry width="50" height="50" relative="1" as="geometry">
                        <mxPoint x="-280" y="350" as="sourcePoint"/>
                        <mxPoint x="159.99723752465664" y="240.0043113779917" as="targetPoint"/>
                        <Array as="points"/>
                    </mxGeometry>
                </mxCell>
                <mxCell id="55" value="Extender" style="html=1;verticalAlign=bottom;endArrow=open;dashed=1;endSize=8;" edge="1" parent="1" source="49" target="45">
                    <mxGeometry x="0.0464" y="-2" relative="1" as="geometry">
                        <mxPoint x="360" y="260" as="sourcePoint"/>
                        <mxPoint x="280" y="260" as="targetPoint"/>
                        <Array as="points"/>
                        <mxPoint y="1" as="offset"/>
                    </mxGeometry>
                </mxCell>
                <mxCell id="56" value="Incluir" style="endArrow=block;dashed=1;endFill=0;endSize=12;html=1;exitX=0.752;exitY=0.083;exitDx=0;exitDy=0;entryX=0;entryY=0.5;entryDx=0;entryDy=0;exitPerimeter=0;" edge="1" parent="1" source="106" target="48">
                    <mxGeometry width="160" relative="1" as="geometry">
                        <mxPoint x="270" y="420" as="sourcePoint"/>
                        <mxPoint x="390" y="330" as="targetPoint"/>
                        <Array as="points"/>
                    </mxGeometry>
                </mxCell>
                <mxCell id="57" value="Incluir" style="endArrow=block;dashed=1;endFill=0;endSize=12;html=1;exitX=1;exitY=0.5;exitDx=0;exitDy=0;" edge="1" parent="1" source="106" target="47">
                    <mxGeometry width="160" relative="1" as="geometry">
                        <mxPoint x="349.7513777751326" y="360.8169977536114" as="sourcePoint"/>
                        <mxPoint x="418.01" y="429.99" as="targetPoint"/>
                    </mxGeometry>
                </mxCell>
                <mxCell id="58" value="Incluir" style="endArrow=block;dashed=1;endFill=0;endSize=12;html=1;entryX=0;entryY=0.5;entryDx=0;entryDy=0;exitX=0.91;exitY=0.79;exitDx=0;exitDy=0;exitPerimeter=0;" edge="1" parent="1" source="106" target="46">
                    <mxGeometry width="160" relative="1" as="geometry">
                        <mxPoint x="340" y="390" as="sourcePoint"/>
                        <mxPoint x="418.01" y="420" as="targetPoint"/>
                    </mxGeometry>
                </mxCell>
                <mxCell id="59" value="&lt;b&gt;Mis certificaciones&lt;/b&gt;" style="ellipse;whiteSpace=wrap;html=1;" vertex="1" parent="1">
                    <mxGeometry x="20" y="420" width="90" height="70" as="geometry"/>
                </mxCell>
                <mxCell id="60" value="&lt;b&gt;Mi progreso&lt;/b&gt;" style="ellipse;whiteSpace=wrap;html=1;" vertex="1" parent="1">
                    <mxGeometry x="40" y="330" width="80" height="60" as="geometry"/>
                </mxCell>
                <mxCell id="61" value="&lt;b&gt;Mis cursos&lt;/b&gt;" style="ellipse;whiteSpace=wrap;html=1;" vertex="1" parent="1">
                    <mxGeometry y="220" width="76" height="65" as="geometry"/>
                </mxCell>
                <mxCell id="62" value="Incluir" style="endArrow=block;dashed=1;endFill=0;endSize=12;html=1;entryX=0;entryY=0.5;entryDx=0;entryDy=0;exitX=0.957;exitY=0.246;exitDx=0;exitDy=0;exitPerimeter=0;" edge="1" parent="1" source="44" target="61">
                    <mxGeometry width="160" relative="1" as="geometry">
                        <mxPoint x="299" y="494" as="sourcePoint"/>
                        <mxPoint x="380" y="520" as="targetPoint"/>
                        <Array as="points"/>
                    </mxGeometry>
                </mxCell>
                <mxCell id="63" value="Incluir" style="endArrow=block;dashed=1;endFill=0;endSize=12;html=1;entryX=0;entryY=0.5;entryDx=0;entryDy=0;" edge="1" parent="1" source="44" target="60">
                    <mxGeometry x="0.0391" y="-7" width="160" relative="1" as="geometry">
                        <mxPoint x="250" y="640" as="sourcePoint"/>
                        <mxPoint x="331" y="666" as="targetPoint"/>
                        <mxPoint as="offset"/>
                    </mxGeometry>
                </mxCell>
                <mxCell id="64" value="Incluir" style="endArrow=block;dashed=1;endFill=0;endSize=12;html=1;" edge="1" parent="1" source="44" target="59">
                    <mxGeometry x="0.0391" y="-7" width="160" relative="1" as="geometry">
                        <mxPoint x="210" y="650" as="sourcePoint"/>
                        <mxPoint x="314.64466094067257" y="731.7157287525379" as="targetPoint"/>
                        <mxPoint as="offset"/>
                    </mxGeometry>
                </mxCell>
                <mxCell id="65" value="&lt;font style=&quot;font-size: 72px&quot;&gt;&lt;b&gt;SISTEMA&lt;/b&gt;&lt;/font&gt;" style="text;html=1;strokeColor=none;fillColor=none;align=center;verticalAlign=middle;whiteSpace=wrap;rounded=0;" vertex="1" parent="1">
                    <mxGeometry x="-45" y="-20" width="40" height="20" as="geometry"/>
                </mxCell>
                <mxCell id="66" value="&lt;font style=&quot;font-size: 30px&quot;&gt;&lt;b&gt;Administrador&lt;/b&gt;&lt;/font&gt;" style="shape=umlActor;verticalLabelPosition=bottom;verticalAlign=top;html=1;outlineConnect=0;strokeColor=#33001A;fillColor=#33001A;fontSize=30;" vertex="1" parent="1">
                    <mxGeometry x="600" y="355" width="140" height="230" as="geometry"/>
                </mxCell>
                <mxCell id="67" value="" style="endArrow=none;html=1;exitX=1;exitY=0.667;exitDx=0;exitDy=0;exitPerimeter=0;entryX=0.5;entryY=0.5;entryDx=0;entryDy=0;entryPerimeter=0;" edge="1" parent="1" source="41" target="66">
                    <mxGeometry width="50" height="50" relative="1" as="geometry">
                        <mxPoint x="520" y="250" as="sourcePoint"/>
                        <mxPoint x="570" y="200" as="targetPoint"/>
                    </mxGeometry>
                </mxCell>
                <mxCell id="68" value="" style="endArrow=none;html=1;entryX=0.5;entryY=0.5;entryDx=0;entryDy=0;entryPerimeter=0;" edge="1" parent="1" source="42" target="66">
                    <mxGeometry width="50" height="50" relative="1" as="geometry">
                        <mxPoint x="470" y="284.13" as="sourcePoint"/>
                        <mxPoint x="680" y="415.87823529411776" as="targetPoint"/>
                    </mxGeometry>
                </mxCell>
                <mxCell id="69" value="" style="endArrow=none;html=1;exitX=1;exitY=0.5;exitDx=0;exitDy=0;entryX=0.5;entryY=0.5;entryDx=0;entryDy=0;entryPerimeter=0;" edge="1" parent="1" source="49" target="66">
                    <mxGeometry width="50" height="50" relative="1" as="geometry">
                        <mxPoint x="590" y="388.25" as="sourcePoint"/>
                        <mxPoint x="800" y="519.9982352941178" as="targetPoint"/>
                    </mxGeometry>
                </mxCell>
                <mxCell id="70" value="" style="endArrow=none;html=1;exitX=1;exitY=0.5;exitDx=0;exitDy=0;entryX=0.5;entryY=0.5;entryDx=0;entryDy=0;entryPerimeter=0;" edge="1" parent="1" source="48" target="66">
                    <mxGeometry width="50" height="50" relative="1" as="geometry">
                        <mxPoint x="570" y="498.25" as="sourcePoint"/>
                        <mxPoint x="780" y="629.9982352941178" as="targetPoint"/>
                        <Array as="points"/>
                    </mxGeometry>
                </mxCell>
                <mxCell id="71" value="" style="endArrow=none;html=1;exitX=1;exitY=0.5;exitDx=0;exitDy=0;entryX=0.5;entryY=0.5;entryDx=0;entryDy=0;entryPerimeter=0;" edge="1" parent="1" source="47" target="66">
                    <mxGeometry width="50" height="50" relative="1" as="geometry">
                        <mxPoint x="586" y="495" as="sourcePoint"/>
                        <mxPoint x="725" y="360" as="targetPoint"/>
                        <Array as="points"/>
                    </mxGeometry>
                </mxCell>
                <mxCell id="72" value="" style="endArrow=none;html=1;exitX=1;exitY=0.5;exitDx=0;exitDy=0;entryX=0.5;entryY=0.5;entryDx=0;entryDy=0;entryPerimeter=0;" edge="1" parent="1" source="46" target="66">
                    <mxGeometry width="50" height="50" relative="1" as="geometry">
                        <mxPoint x="590" y="605" as="sourcePoint"/>
                        <mxPoint x="775" y="430" as="targetPoint"/>
                        <Array as="points"/>
                    </mxGeometry>
                </mxCell>
                <mxCell id="73" value="" style="endArrow=none;html=1;entryX=0.5;entryY=0.5;entryDx=0;entryDy=0;entryPerimeter=0;" edge="1" parent="1" source="61" target="66">
                    <mxGeometry width="50" height="50" relative="1" as="geometry">
                        <mxPoint x="580" y="710" as="sourcePoint"/>
                        <mxPoint x="760" y="410" as="targetPoint"/>
                        <Array as="points"/>
                    </mxGeometry>
                </mxCell>
                <mxCell id="74" value="" style="endArrow=none;html=1;exitX=1;exitY=0.5;exitDx=0;exitDy=0;entryX=0.5;entryY=0.5;entryDx=0;entryDy=0;entryPerimeter=0;" edge="1" parent="1" source="60" target="66">
                    <mxGeometry width="50" height="50" relative="1" as="geometry">
                        <mxPoint x="515.7" y="808.03" as="sourcePoint"/>
                        <mxPoint x="775" y="430" as="targetPoint"/>
                        <Array as="points"/>
                    </mxGeometry>
                </mxCell>
                <mxCell id="75" value="" style="endArrow=none;html=1;exitX=1;exitY=0.5;exitDx=0;exitDy=0;entryX=0.5;entryY=0.5;entryDx=0;entryDy=0;entryPerimeter=0;" edge="1" parent="1" source="59" target="66">
                    <mxGeometry width="50" height="50" relative="1" as="geometry">
                        <mxPoint x="396.60026676052235" y="820.9735289577166" as="sourcePoint"/>
                        <mxPoint x="775" y="430" as="targetPoint"/>
                        <Array as="points"/>
                    </mxGeometry>
                </mxCell>
                <mxCell id="78" value="Expiracion de curso" style="ellipse;whiteSpace=wrap;html=1;strokeColor=#FFFFFF;" vertex="1" parent="1">
                    <mxGeometry x="-135" y="485" width="140" height="70" as="geometry"/>
                </mxCell>
                <mxCell id="79" value="Incluir" style="endArrow=block;dashed=1;endFill=0;endSize=12;html=1;exitX=0;exitY=1;exitDx=0;exitDy=0;" edge="1" parent="1" source="44" target="78">
                    <mxGeometry x="0.0391" y="-7" width="160" relative="1" as="geometry">
                        <mxPoint x="-110" y="750" as="sourcePoint"/>
                        <mxPoint x="-61.44310798858646" y="916.0216464277262" as="targetPoint"/>
                        <mxPoint as="offset"/>
                    </mxGeometry>
                </mxCell>
                <mxCell id="81" value="Revalidar curso" style="ellipse;whiteSpace=wrap;html=1;strokeColor=#FFFFFF;" vertex="1" parent="1">
                    <mxGeometry x="-120" y="1240" width="85" height="60" as="geometry"/>
                </mxCell>
                <mxCell id="82" value="Extender" style="html=1;verticalAlign=bottom;endArrow=open;dashed=1;endSize=8;entryX=1;entryY=0.5;entryDx=0;entryDy=0;exitX=0;exitY=1;exitDx=0;exitDy=0;" edge="1" parent="1" source="49" target="81">
                    <mxGeometry x="0.0464" y="-2" relative="1" as="geometry">
                        <mxPoint x="205.74595789802484" y="624.4367816756626" as="sourcePoint"/>
                        <mxPoint x="0.003940318897248218" y="544.999994932551" as="targetPoint"/>
                        <Array as="points"/>
                        <mxPoint y="1" as="offset"/>
                    </mxGeometry>
                </mxCell>
                <mxCell id="83" value="" style="endArrow=none;html=1;exitX=0.5;exitY=0.5;exitDx=0;exitDy=0;exitPerimeter=0;" edge="1" parent="1" source="40" target="81">
                    <mxGeometry width="50" height="50" relative="1" as="geometry">
                        <mxPoint x="-565" y="495" as="sourcePoint"/>
                        <mxPoint x="-112.70000000000005" y="720" as="targetPoint"/>
                        <Array as="points"/>
                    </mxGeometry>
                </mxCell>
                <mxCell id="84" value="Evaluacion de curso" style="ellipse;whiteSpace=wrap;html=1;strokeColor=#FFFFFF;" vertex="1" parent="1">
                    <mxGeometry x="-135" y="1340" width="100" height="70" as="geometry"/>
                </mxCell>
                <mxCell id="85" value="Certificacion" style="ellipse;whiteSpace=wrap;html=1;strokeColor=#FFFFFF;" vertex="1" parent="1">
                    <mxGeometry x="300" y="1320" width="75" height="50" as="geometry"/>
                </mxCell>
                <mxCell id="86" value="Extender" style="html=1;verticalAlign=bottom;endArrow=open;dashed=1;endSize=8;entryX=1;entryY=0.5;entryDx=0;entryDy=0;exitX=0.037;exitY=0.343;exitDx=0;exitDy=0;exitPerimeter=0;" edge="1" parent="1" source="85" target="84">
                    <mxGeometry x="0.0464" y="-2" relative="1" as="geometry">
                        <mxPoint x="146.5" y="730" as="sourcePoint"/>
                        <mxPoint x="-36.5" y="710" as="targetPoint"/>
                        <Array as="points"/>
                        <mxPoint y="1" as="offset"/>
                    </mxGeometry>
                </mxCell>
                <mxCell id="87" value="" style="endArrow=none;html=1;exitX=0.5;exitY=0.5;exitDx=0;exitDy=0;exitPerimeter=0;" edge="1" parent="1" source="40" target="84">
                    <mxGeometry width="50" height="50" relative="1" as="geometry">
                        <mxPoint x="-565" y="495" as="sourcePoint"/>
                        <mxPoint x="-112.70000000000027" y="890" as="targetPoint"/>
                        <Array as="points"/>
                    </mxGeometry>
                </mxCell>
                <mxCell id="91" value="Buscar topico" style="ellipse;whiteSpace=wrap;html=1;strokeColor=#FFFFFF;" vertex="1" parent="1">
                    <mxGeometry x="-100" y="830" width="100" height="70" as="geometry"/>
                </mxCell>
                <mxCell id="92" value="Seleccionar topico" style="ellipse;whiteSpace=wrap;html=1;strokeColor=#FFFFFF;" vertex="1" parent="1">
                    <mxGeometry x="-107.5" y="920" width="105" height="70" as="geometry"/>
                </mxCell>
                <mxCell id="94" value="Descargar/subir contenido" style="ellipse;whiteSpace=wrap;html=1;strokeColor=#FFFFFF;" vertex="1" parent="1">
                    <mxGeometry x="-112.5" y="1030" width="110" height="50" as="geometry"/>
                </mxCell>
                <mxCell id="95" style="edgeStyle=orthogonalEdgeStyle;rounded=0;orthogonalLoop=1;jettySize=auto;html=1;exitX=0.5;exitY=1;exitDx=0;exitDy=0;" edge="1" parent="1" source="91" target="91">
                    <mxGeometry relative="1" as="geometry"/>
                </mxCell>
                <mxCell id="97" value="" style="endArrow=none;html=1;entryX=0;entryY=0.5;entryDx=0;entryDy=0;exitX=0.5;exitY=0.5;exitDx=0;exitDy=0;exitPerimeter=0;" edge="1" parent="1" source="40" target="94">
                    <mxGeometry width="50" height="50" relative="1" as="geometry">
                        <mxPoint x="-565" y="495" as="sourcePoint"/>
                        <mxPoint x="-99.99999999998408" y="1055" as="targetPoint"/>
                        <Array as="points"/>
                    </mxGeometry>
                </mxCell>
                <mxCell id="98" value="" style="endArrow=none;html=1;entryX=0;entryY=0.5;entryDx=0;entryDy=0;exitX=0.5;exitY=0.5;exitDx=0;exitDy=0;exitPerimeter=0;" edge="1" parent="1" source="40" target="92">
                    <mxGeometry width="50" height="50" relative="1" as="geometry">
                        <mxPoint x="-565" y="495" as="sourcePoint"/>
                        <mxPoint x="-134.9999999999891" y="900" as="targetPoint"/>
                        <Array as="points"/>
                    </mxGeometry>
                </mxCell>
                <mxCell id="99" value="" style="endArrow=none;html=1;entryX=0;entryY=0.5;entryDx=0;entryDy=0;exitX=0.5;exitY=0.5;exitDx=0;exitDy=0;exitPerimeter=0;" edge="1" parent="1" source="40" target="91">
                    <mxGeometry width="50" height="50" relative="1" as="geometry">
                        <mxPoint x="-555" y="505" as="sourcePoint"/>
                        <mxPoint x="-135.00000000000045" y="785" as="targetPoint"/>
                        <Array as="points"/>
                    </mxGeometry>
                </mxCell>
                <mxCell id="101" value="" style="endArrow=none;html=1;exitX=1;exitY=0.5;exitDx=0;exitDy=0;entryX=0.5;entryY=0.5;entryDx=0;entryDy=0;entryPerimeter=0;" edge="1" parent="1" source="78" target="66">
                    <mxGeometry width="50" height="50" relative="1" as="geometry">
                        <mxPoint x="145" y="430" as="sourcePoint"/>
                        <mxPoint x="774.9999999999995" y="430" as="targetPoint"/>
                        <Array as="points"/>
                    </mxGeometry>
                </mxCell>
                <mxCell id="103" value="" style="endArrow=none;html=1;exitX=1;exitY=0.5;exitDx=0;exitDy=0;entryX=0.5;entryY=0.5;entryDx=0;entryDy=0;entryPerimeter=0;" edge="1" parent="1" source="91" target="66">
                    <mxGeometry width="50" height="50" relative="1" as="geometry">
                        <mxPoint x="218" y="650" as="sourcePoint"/>
                        <mxPoint x="774.9999999999995" y="430" as="targetPoint"/>
                        <Array as="points">
                            <mxPoint x="420" y="620"/>
                        </Array>
                    </mxGeometry>
                </mxCell>
                <mxCell id="104" value="" style="endArrow=none;html=1;entryX=0.5;entryY=0.5;entryDx=0;entryDy=0;entryPerimeter=0;exitX=1;exitY=0.5;exitDx=0;exitDy=0;" edge="1" parent="1" source="92" target="66">
                    <mxGeometry width="50" height="50" relative="1" as="geometry">
                        <mxPoint x="10" y="755" as="sourcePoint"/>
                        <mxPoint x="774.9999999999995" y="430" as="targetPoint"/>
                        <Array as="points">
                            <mxPoint x="450" y="640"/>
                        </Array>
                    </mxGeometry>
                </mxCell>
                <mxCell id="105" value="" style="endArrow=none;html=1;entryX=0.5;entryY=0.5;entryDx=0;entryDy=0;entryPerimeter=0;exitX=1;exitY=0.5;exitDx=0;exitDy=0;" edge="1" parent="1" source="94" target="66">
                    <mxGeometry width="50" height="50" relative="1" as="geometry">
                        <mxPoint x="4.999999999994998" y="845" as="sourcePoint"/>
                        <mxPoint x="774.9999999999995" y="430" as="targetPoint"/>
                        <Array as="points">
                            <mxPoint x="470" y="660"/>
                        </Array>
                    </mxGeometry>
                </mxCell>
                <mxCell id="106" value="Analitica de datos" style="ellipse;whiteSpace=wrap;html=1;strokeColor=#FFFFFF;" vertex="1" parent="1">
                    <mxGeometry x="-230" y="609.5" width="140" height="70" as="geometry"/>
                </mxCell>
                <mxCell id="107" value="Incluir" style="endArrow=block;dashed=1;endFill=0;endSize=12;html=1;exitX=1;exitY=0.5;exitDx=0;exitDy=0;entryX=0;entryY=0.5;entryDx=0;entryDy=0;" edge="1" parent="1" source="43" target="106">
                    <mxGeometry width="160" relative="1" as="geometry">
                        <mxPoint x="-254.72000000000003" y="555.81" as="sourcePoint"/>
                        <mxPoint x="-134.99999999999773" y="520" as="targetPoint"/>
                        <Array as="points"/>
                    </mxGeometry>
                </mxCell>
                <mxCell id="111" value="" style="endArrow=none;html=1;exitX=1;exitY=0;exitDx=0;exitDy=0;entryX=0.5;entryY=0.5;entryDx=0;entryDy=0;entryPerimeter=0;" edge="1" parent="1" source="85" target="66">
                    <mxGeometry width="50" height="50" relative="1" as="geometry">
                        <mxPoint x="240" y="1055" as="sourcePoint"/>
                        <mxPoint x="680" y="480" as="targetPoint"/>
                    </mxGeometry>
                </mxCell>
            </root>
        </mxGraphModel>
    </diagram>
</mxfile>